<?xml version="1.0" encoding="UTF-8" standalone="no"?>
<svg
   xmlns:osb="http://www.openswatchbook.org/uri/2009/osb"
   xmlns:dc="http://purl.org/dc/elements/1.1/"
   xmlns:cc="http://creativecommons.org/ns#"
   xmlns:rdf="http://www.w3.org/1999/02/22-rdf-syntax-ns#"
   xmlns:svg="http://www.w3.org/2000/svg"
   xmlns="http://www.w3.org/2000/svg"
   xmlns:sodipodi="http://sodipodi.sourceforge.net/DTD/sodipodi-0.dtd"
   xmlns:inkscape="http://www.inkscape.org/namespaces/inkscape"
   height="32px"
   id="Layer_1"
   style="enable-background:new 0 0 32 32;"
   version="1.1"
   viewBox="0 0 32 32"
   width="32px"
   xml:space="preserve"
   inkscape:version="0.91 r13725"
   sodipodi:docname="logo2.svg"><metadata
     id="metadata9"><rdf:RDF><cc:Work
         rdf:about=""><dc:format>image/svg+xml</dc:format><dc:type
           rdf:resource="http://purl.org/dc/dcmitype/StillImage" /><dc:title></dc:title></cc:Work></rdf:RDF></metadata><defs
     id="defs7"><inkscape:perspective
       sodipodi:type="inkscape:persp3d"
       inkscape:vp_x="6.2995247 : -6.5055452 : 1"
       inkscape:vp_y="0 : 2608.4932 : 0"
       inkscape:vp_z="62.002679 : -6.5055452 : 1"
       inkscape:persp3d-origin="34.151104 : -20.417507 : 1"
       id="perspective5851" /><inkscape:perspective
       sodipodi:type="inkscape:persp3d"
       inkscape:vp_x="5.4859653 : -8.81063 : 1"
       inkscape:vp_y="0 : 2608.4932 : 0"
       inkscape:vp_z="61.189119 : -8.81063 : 1"
       inkscape:persp3d-origin="33.337544 : -22.722591 : 1"
       id="perspective5805" /><linearGradient
       id="linearGradient5715"
       osb:paint="solid"><stop
         style="stop-color:#5a4c33;stop-opacity:1;"
         offset="0"
         id="stop5717" /></linearGradient><linearGradient
       id="linearGradient5634"
       osb:paint="solid"><stop
         style="stop-color:#c87137;stop-opacity:1;"
         offset="0"
         id="stop5636" /></linearGradient><inkscape:perspective
       sodipodi:type="inkscape:persp3d"
       inkscape:vp_x="-15.340397 : -11.263021 : 1"
       inkscape:vp_y="0 : 2515.9124 : 0"
       inkscape:vp_z="69.505527 : -11.263021 : 1"
       inkscape:persp3d-origin="27.082568 : -24.681218 : 1"
       id="perspective3343" /><filter
       inkscape:collect="always"
       style="color-interpolation-filters:sRGB"
       id="filter5912"
       x="-1.4272601"
       width="3.8545203"
       y="-0.92920653"
       height="2.8584131"><feGaussianBlur
         inkscape:collect="always"
         stdDeviation="9.2731468"
         id="feGaussianBlur5914" /></filter></defs><sodipodi:namedview
     pagecolor="#ffffff"
     bordercolor="#666666"
     borderopacity="1"
     objecttolerance="10"
     gridtolerance="10"
     guidetolerance="10"
     inkscape:pageopacity="0"
     inkscape:pageshadow="2"
     inkscape:window-width="1323"
     inkscape:window-height="824"
     id="namedview5"
     showgrid="false"
     inkscape:snap-grids="false"
     inkscape:snap-text-baseline="false"
     inkscape:snap-center="true"
     inkscape:zoom="14.75"
     inkscape:cx="15.322034"
     inkscape:cy="15.728745"
     inkscape:window-x="0"
     inkscape:window-y="0"
     inkscape:window-maximized="0"
     inkscape:current-layer="Layer_1"
     showguides="true" /><g
     inkscape:groupmode="layer"
     id="layer1"
     inkscape:label="Layer 1"
     sodipodi:insensitive="true" /><g
     inkscape:groupmode="layer"
     id="layer2"
     inkscape:label="Layer 2" /><g
     sodipodi:type="inkscape:box3d"
     id="g5855"
     style="opacity:1;fill:#000080;fill-opacity:0.27639753;filter:url(#filter5912)"
     inkscape:perspectiveID="#perspective3343"
     inkscape:corner0="0.84981568 : 0.024658626 : 0 : 1"
     inkscape:corner7="0.40169227 : 0.014293781 : 0.25 : 1"><path
       sodipodi:type="inkscape:box3dside"
       id="path5867"
       style="fill:#e9e9ff;fill-rule:evenodd;stroke:none;stroke-width:1px;stroke-linecap:butt;stroke-linejoin:round;stroke-opacity:1"
       inkscape:box3dsidetype="11"
       d="m 14.96438,20.108253 8.22204,-6.28216 0,15.788076 -8.22204,2.912813 z"
       points="23.18642,13.826093 23.18642,29.614169 14.96438,32.526982 14.96438,20.108253 " /><path
       sodipodi:type="inkscape:box3dside"
       id="path5857"
       style="fill:#353564;fill-rule:evenodd;stroke:none;stroke-width:1px;stroke-linecap:butt;stroke-linejoin:round;stroke-opacity:1"
       inkscape:box3dsidetype="6"
       d="m 7.5932204,16.978918 0,14.097103 7.3711596,1.450961 0,-12.418729 z"
       points="7.5932204,31.076021 14.96438,32.526982 14.96438,20.108253 7.5932204,16.978918 " /><path
       sodipodi:type="inkscape:box3dside"
       id="path5859"
       style="fill:#4d4d9f;fill-rule:evenodd;stroke:none;stroke-width:1px;stroke-linecap:butt;stroke-linejoin:round;stroke-opacity:1"
       inkscape:box3dsidetype="5"
       d="m 7.5932204,16.978918 7.3319166,-8.4030726 8.261283,5.2502476 -8.22204,6.28216 z"
       points="14.925137,8.5758454 23.18642,13.826093 14.96438,20.108253 7.5932204,16.978918 " /><path
       sodipodi:type="inkscape:box3dside"
       id="path5865"
       style="fill:#afafde;fill-rule:evenodd;stroke:none;stroke-width:1px;stroke-linecap:butt;stroke-linejoin:round;stroke-opacity:1"
       inkscape:box3dsidetype="13"
       d="m 7.5932204,31.076021 7.3319166,-3.896205 8.261283,2.434353 -8.22204,2.912813 z"
       points="14.925137,27.179816 23.18642,29.614169 14.96438,32.526982 7.5932204,31.076021 " /><path
       sodipodi:type="inkscape:box3dside"
       id="path5863"
       style="fill:#d7d7ff;fill-rule:evenodd;stroke:none;stroke-width:1px;stroke-linecap:butt;stroke-linejoin:round;stroke-opacity:1"
       inkscape:box3dsidetype="14"
       d="m 14.925137,8.5758454 0,18.6039706 8.261283,2.434353 0,-15.788076 z"
       points="14.925137,27.179816 23.18642,29.614169 23.18642,13.826093 14.925137,8.5758454 " /><path
       sodipodi:type="inkscape:box3dside"
       id="path5861"
       style="fill:#8686bf;fill-rule:evenodd;stroke:none;stroke-width:1px;stroke-linecap:butt;stroke-linejoin:round;stroke-opacity:1"
       inkscape:box3dsidetype="3"
       d="m 7.5932204,16.978918 7.3319166,-8.4030726 0,18.6039706 -7.3319166,3.896205 z"
       points="14.925137,8.5758454 14.925137,27.179816 7.5932204,31.076021 7.5932204,16.978918 " /></g><text
     xml:space="preserve"
     style="font-style:normal;font-variant:normal;font-weight:100;font-stretch:normal;font-size:32.09326553px;line-height:125%;font-family:'Hoefler Text';-inkscape-font-specification:'Hoefler Text, Thin';text-align:start;letter-spacing:0px;word-spacing:0px;writing-mode:lr-tb;text-anchor:start;fill:#333366;fill-opacity:1;stroke:none;stroke-width:1px;stroke-linecap:butt;stroke-linejoin:miter;stroke-opacity:1"
     x="0.42697135"
     y="23.831079"
     id="text3361"
     sodipodi:linespacing="125%"
     transform="scale(0.89586031,1.1162455)"><tspan
       sodipodi:role="line"
       id="tspan3363"
       x="0.42697135"
       y="23.831079">k</tspan></text>
<text
     xml:space="preserve"
     style="font-style:normal;font-variant:normal;font-weight:100;font-stretch:normal;font-size:33.67526627px;line-height:125%;font-family:'Hoefler Text';-inkscape-font-specification:'Hoefler Text, Thin';text-align:start;letter-spacing:0px;word-spacing:0px;writing-mode:lr-tb;text-anchor:start;fill:#003399;fill-opacity:1;stroke:none;stroke-width:1px;stroke-linecap:butt;stroke-linejoin:miter;stroke-opacity:1"
     x="17.92593"
     y="18.791035"
     id="text3365"
     sodipodi:linespacing="125%"
     transform="scale(0.87097931,1.1481329)"><tspan
       sodipodi:role="line"
       id="tspan3367"
       x="17.92593"
       y="18.791035">p</tspan></text>
<path
     style="opacity:1;fill:#003399;fill-opacity:0.27639753"
     d="m 14.966523,31.000925 c -0.604552,-0.0787 -1.262708,-0.182772 -1.462569,-0.231248 -0.684405,-0.166004 -1.736352,-0.45935 -1.885646,-0.525833 -0.08208,-0.03656 -0.196254,-0.0666 -0.253711,-0.06677 -0.05746,-1.76e-4 -0.104468,-0.02351 -0.104468,-0.05186 0,-0.02835 -0.04861,-0.05152 -0.107984,-0.05152 -0.05939,0 -0.16013,-0.03403 -0.223864,-0.07565 -0.06372,-0.0416 -0.16289,-0.07639 -0.220347,-0.07729 -0.05746,-8.81e-4 -0.10447,-0.02483 -0.10447,-0.05316 0,-0.02835 -0.05149,-0.05152 -0.114419,-0.05152 -0.06293,0 -0.123372,-0.01738 -0.134316,-0.03863 -0.01094,-0.02125 -0.254955,-0.140565 -0.542245,-0.265143 -0.28729,-0.124584 -0.5223457,-0.241985 -0.5223457,-0.260898 0,-0.01891 -0.094023,-0.06623 -0.2089383,-0.105149 -0.1149161,-0.03892 -0.2089384,-0.08963 -0.2089384,-0.11267 0,-0.02306 -0.027997,-0.0419 -0.062215,-0.0419 -0.058554,0 -0.1260788,-0.04031 -0.3236197,-0.193221 -0.045764,-0.03542 -0.1119916,-0.06442 -0.1471696,-0.06442 -0.035178,0 -0.06396,-0.02319 -0.06396,-0.05152 0,-0.02835 -0.041138,-0.05152 -0.091419,-0.05152 -0.050281,0 -0.1068816,-0.03478 -0.1257803,-0.07729 -0.018899,-0.04251 -0.058147,-0.07729 -0.087217,-0.07729 -0.050455,0 -0.2596161,-0.138884 -0.4715089,-0.313089 -0.054337,-0.04468 -0.1437566,-0.09612 -0.1987062,-0.114317 -0.054951,-0.0182 -0.099909,-0.05701 -0.099909,-0.08623 0,-0.02923 -0.040296,-0.05315 -0.089545,-0.05315 -0.049249,0 -0.089545,-0.03478 -0.089545,-0.07729 0,-0.0425 -0.026864,-0.07729 -0.059696,-0.07729 -0.1229964,0 -0.053904,0.15903 0.089545,0.206104 0.082084,0.02693 0.1492417,0.08634 0.1492417,0.132014 0,0.04567 0.080589,0.109297 0.17909,0.141387 0.0985,0.03209 0.1790901,0.08861 0.1790901,0.125613 0,0.03699 0.065524,0.08877 0.145612,0.115051 0.080087,0.02628 0.1734004,0.0926 0.2073636,0.147375 0.033963,0.05478 0.1296188,0.114293 0.2125677,0.132262 0.082949,0.01796 0.1508167,0.06657 0.1508167,0.107998 0,0.04143 0.06462,0.08932 0.1436014,0.106432 0.078982,0.01711 0.1570561,0.07552 0.1735012,0.129795 0.017242,0.05691 0.081916,0.09869 0.1527817,0.09869 0.067584,0 0.1516355,0.04637 0.1867788,0.103051 0.035144,0.05668 0.1102174,0.103052 0.1668307,0.103052 0.056613,0 0.1364863,0.04639 0.1774956,0.103052 0.041009,0.05668 0.1146295,0.10305 0.1636011,0.10305 0.048971,0 0.08904,0.02162 0.08904,0.04804 0,0.02643 0.058925,0.0642 0.1309454,0.08393 0.072021,0.01973 0.2597884,0.114038 0.417264,0.209574 0.157475,0.09553 0.326891,0.173704 0.376477,0.173704 0.04959,0 0.09015,0.01787 0.09015,0.03973 0,0.02184 0.221623,0.131555 0.492497,0.243787 0.285038,0.118099 0.449327,0.211341 0.390011,0.221348 -0.05637,0.0095 -0.271276,-0.05076 -0.477573,-0.133926 -0.206298,-0.08318 -0.462395,-0.183126 -0.569101,-0.22213 -0.106708,-0.039 -0.194015,-0.08845 -0.194015,-0.109863 0,-0.02143 -0.05372,-0.03895 -0.119394,-0.03895 -0.06567,0 -0.119393,-0.02318 -0.119393,-0.05152 0,-0.02834 -0.037936,-0.05152 -0.084302,-0.05152 -0.097274,0 -0.9504831,-0.412739 -0.9802892,-0.474214 -0.010944,-0.02257 -0.057957,-0.04105 -0.1044693,-0.04105 -0.046514,0 -0.084571,-0.02319 -0.084571,-0.05152 0,-0.02835 -0.053728,-0.05152 -0.1193932,-0.05152 -0.065666,0 -0.1193934,-0.02318 -0.1193934,-0.05152 0,-0.02836 -0.03742,-0.05152 -0.083157,-0.05152 -0.045738,0 -0.098621,-0.03478 -0.1175202,-0.07729 -0.018899,-0.0425 -0.0755,-0.07728 -0.1257802,-0.07728 -0.05028,0 -0.09142,-0.02319 -0.09142,-0.05152 0,-0.02836 -0.025479,-0.05152 -0.05662,-0.05152 -0.031141,0 -0.1290863,-0.05796 -0.2176553,-0.128813 -0.088569,-0.07087 -0.1974073,-0.128829 -0.2418622,-0.128829 -0.044455,0 -0.080828,-0.03478 -0.080828,-0.07729 0,-0.04295 -0.053063,-0.07728 -0.1193933,-0.07728 -0.066329,0 -0.1193933,-0.03436 -0.1193933,-0.07729 0,-0.04251 -0.037422,-0.0773 -0.083157,-0.0773 -0.045737,0 -0.098621,-0.03478 -0.1175203,-0.07728 -0.018899,-0.0425 -0.0755,-0.07729 -0.1257801,-0.07729 -0.05028,0 -0.091419,-0.03478 -0.091419,-0.07729 0,-0.04251 -0.040296,-0.07729 -0.089545,-0.07729 -0.049249,0 -0.089545,-0.03478 -0.089545,-0.07728 0,-0.04295 -0.053064,-0.07729 -0.1193933,-0.07729 -0.065665,0 -0.1193933,-0.03322 -0.1193933,-0.07382 0,-0.04061 -0.053728,-0.08853 -0.1193933,-0.106524 -0.065665,-0.01799 -0.1193934,-0.06592 -0.1193934,-0.106523 0,-0.04061 -0.040296,-0.07382 -0.089545,-0.07382 -0.049249,0 -0.089545,-0.03696 -0.089545,-0.0821 0,-0.04516 -0.053728,-0.09424 -0.1193934,-0.109061 -0.065666,-0.01482 -0.1193932,-0.05747 -0.1193932,-0.09475 0,-0.0373 -0.053728,-0.08253 -0.1193934,-0.100515 -0.065666,-0.01799 -0.1193932,-0.0681 -0.1193932,-0.111348 0,-0.04325 -0.053728,-0.09076 -0.1193936,-0.105587 -0.06608,-0.01492 -0.1193931,-0.07029 -0.1193931,-0.123991 0,-0.05336 -0.035984,-0.09705 -0.079962,-0.09705 -0.043981,0 -0.1105624,-0.05796 -0.147962,-0.128813 -0.0374,-0.07085 -0.095439,-0.128815 -0.1289754,-0.128815 -0.033537,0 -0.060976,-0.0448 -0.060976,-0.09958 0,-0.05477 -0.053728,-0.114296 -0.1193932,-0.132285 -0.065823,-0.01804 -0.1193934,-0.07796 -0.1193934,-0.133564 0,-0.06017 -0.060207,-0.12061 -0.1492416,-0.149828 -0.094367,-0.03096 -0.1492417,-0.08911 -0.1492417,-0.158126 0,-0.06582 -0.0474,-0.119848 -0.1193933,-0.136098 -0.076632,-0.01729 -0.1193934,-0.07029 -0.1193934,-0.147941 0,-0.06825 -0.052036,-0.145031 -0.1193933,-0.176144 -0.068425,-0.03162 -0.1193934,-0.107883 -0.1193934,-0.178679 0,-0.07827 -0.043737,-0.135511 -0.1193932,-0.156238 -0.081566,-0.02233 -0.1193934,-0.07796 -0.1193934,-0.17554 0,-0.102356 -0.042296,-0.159469 -0.1492417,-0.201526 -0.1101644,-0.04333 -0.1492417,-0.09855 -0.1492417,-0.2109 0,-0.106957 -0.035497,-0.161935 -0.1193932,-0.184917 -0.091019,-0.02494 -0.1193936,-0.07796 -0.1193936,-0.223119 0,-0.148044 -0.029886,-0.201731 -0.1343173,-0.241276 C 2.7850643,23.825303 2.7491088,23.76326 2.7353926,23.601392 2.7212603,23.434607 2.6863033,23.37724 2.5712268,23.331986 c -0.1229493,-0.04836 -0.14621,-0.09362 -0.14621,-0.284544 0,-0.185322 -0.027425,-0.242554 -0.1492416,-0.311446 l -0.1492417,-0.08441 0,0.248543 c 0,0.297529 0.11002,0.525762 0.2537108,0.526316 0.057458,2.06e-4 0.1044691,0.03235 0.1044691,0.07137 0,0.03904 0.040296,0.09984 0.089545,0.135121 0.061156,0.04382 0.089545,0.16092 0.089545,0.369387 0,0.281005 0.013412,0.311886 0.1689148,0.388917 0.2254629,0.111687 0.3683553,0.338831 0.3683553,0.585541 0,0.111059 0.024803,0.201927 0.055117,0.201927 0.030314,0 0.1377681,0.06002 0.2387865,0.133395 0.1459513,0.106 0.1836704,0.173734 0.1836704,0.329827 0,0.169878 0.028246,0.210817 0.2089383,0.302836 0.1586173,0.08077 0.2091583,0.140947 0.2098526,0.249837 0.00117,0.183106 0.046982,0.239422 0.2677208,0.329081 0.123953,0.05034 0.1848912,0.116122 0.1979337,0.213648 0.017079,0.127711 0.00591,0.136801 -0.1193936,0.09707 -0.07603,-0.0241 -0.1464616,-0.09112 -0.156515,-0.148911 -0.010053,-0.0578 -0.070496,-0.116859 -0.1343176,-0.131263 -0.066757,-0.01507 -0.1160386,-0.07052 -0.1160386,-0.130596 0,-0.05915 -0.051751,-0.118579 -0.1193932,-0.137109 -0.07506,-0.02057 -0.1193935,-0.07796 -0.1193935,-0.154576 0,-0.07663 -0.044334,-0.134015 -0.1193932,-0.154579 -0.076722,-0.02101 -0.1193934,-0.07796 -0.1193934,-0.159324 0,-0.08765 -0.045933,-0.14169 -0.1492416,-0.175592 -0.1119708,-0.03675 -0.1492418,-0.0864 -0.1492418,-0.198818 0,-0.10651 -0.034528,-0.157636 -0.1193932,-0.176791 -0.08516,-0.01922 -0.1193936,-0.07029 -0.1193936,-0.17808 0,-0.111203 -0.039428,-0.166635 -0.1492415,-0.209821 -0.1160995,-0.04566 -0.1492418,-0.09714 -0.1492418,-0.231866 0,-0.134716 -0.033142,-0.186207 -0.1492413,-0.231866 -0.1216803,-0.04786 -0.1492419,-0.09542 -0.1492419,-0.257627 0,-0.162199 -0.027561,-0.209777 -0.1492416,-0.25763 -0.1259808,-0.04954 -0.1492417,-0.09371 -0.1492417,-0.283391 0,-0.189678 -0.023259,-0.233846 -0.1492417,-0.283392 C 1.8456666,23.281419 1.8280131,23.242452 1.8276801,23.002877 1.8273339,22.755258 1.8115145,22.723508 1.6485901,22.64349 1.480488,22.560929 1.4698776,22.536893 1.4698776,22.2387 c 0,-0.276781 -0.018942,-0.329876 -0.1492418,-0.418342 -0.137044,-0.09303 -0.1492416,-0.135125 -0.1492416,-0.51488 0,-0.393069 -0.00887,-0.42071 -0.17908993,-0.557953 l -0.17909103,-0.144397 0,-0.697647 c 0,-0.453378 -0.0230778,-0.709956 -0.0659126,-0.732806 C 0.71104861,19.15334 0.63104818,19.041831 0.56952171,18.924887 0.46648531,18.729042 0.45755197,18.556605 0.45634429,16.740271 l -0.001315,-1.971988 0.17908999,-0.340914 c 0.16631125,-0.316587 0.17909006,-0.38397 0.17909006,-0.944362 0,-0.588731 0.004368,-0.608656 0.17908997,-0.816837 0.16074698,-0.191533 0.17908998,-0.252611 0.17908998,-0.596324 0,-0.333291 0.019348,-0.402783 0.1492416,-0.536022 0.1174988,-0.120527 0.1497578,-0.21178 0.1516679,-0.429041 0.00201,-0.229535 0.032144,-0.305961 0.1790898,-0.454347 0.1336253,-0.134933 0.176664,-0.230027 0.176664,-0.390342 0,-0.159458 0.036961,-0.241919 0.1492417,-0.3329629 0.1063439,-0.086231 0.1492415,-0.1750929 0.1492415,-0.3091538 0,-0.1340617 0.042899,-0.2229244 0.1492418,-0.3091544 0.093373,-0.075711 0.1492416,-0.1775652 0.1492416,-0.272076 0,-0.099761 0.050681,-0.1854713 0.1492417,-0.2523867 0.094627,-0.064242 0.1492417,-0.1532386 0.1492417,-0.2431806 0,-0.084692 0.06014,-0.1906218 0.1492415,-0.2628702 0.082083,-0.066561 0.1492417,-0.174743 0.1492417,-0.2404105 0,-0.065665 0.053728,-0.1483564 0.1193933,-0.1837529 0.065667,-0.035393 0.1193934,-0.115063 0.1193934,-0.1770368 0,-0.061978 0.067159,-0.1582761 0.1492415,-0.2140057 0.082083,-0.055731 0.1492417,-0.1493416 0.1492417,-0.2080294 0,-0.058688 0.053728,-0.1315224 0.1193935,-0.1618555 0.065665,-0.030333 0.1193934,-0.1005123 0.1193934,-0.1559533 0,-0.055442 0.053728,-0.1297624 0.1193933,-0.1651583 0.065666,-0.035397 0.1193933,-0.1043366 0.1193933,-0.1532008 0,-0.048865 0.053727,-0.1136627 0.1193933,-0.1439958 0.065666,-0.030333 0.1193934,-0.09679 0.1193934,-0.1476829 0,-0.050892 0.067158,-0.1235545 0.1492416,-0.1614712 0.082083,-0.037917 0.1492416,-0.1058167 0.1492416,-0.1508893 0,-0.045072 0.053728,-0.1109111 0.1193933,-0.1463073 0.065666,-0.035397 0.1193935,-0.085112 0.1193935,-0.1104792 0,-0.044867 0.2505851,-0.3124555 0.5223458,-0.5577907 0.073875,-0.066692 0.1343174,-0.1418268 0.1343174,-0.1669683 0,-0.025141 0.053728,-0.060429 0.1193934,-0.078419 0.065665,-0.01799 0.1193932,-0.052308 0.1193932,-0.076264 0,-0.046223 0.694431,-0.6708574 0.7458192,-0.6708574 0.097782,0 0.00331,0.1686729 -0.1488524,0.2657758 -0.0985,0.062855 -0.17909,0.139161 -0.17909,0.1695666 0,0.030405 -0.080589,0.1127401 -0.1790901,0.1829658 -0.0985,0.070226 -0.1790901,0.146109 -0.1790901,0.1686295 0,0.02252 -0.08059,0.108943 -0.1790898,0.1920503 C 5.4904455,5.2699057 5.409569,5.356074 5.4092194,5.3782836 5.4088671,5.400493 5.3148471,5.4972772 5.2002811,5.5933593 5.0857146,5.6894372 4.9913551,5.7937767 4.9905932,5.8252203 4.9898316,5.8566644 4.8958091,5.9719011 4.781655,6.0813018 4.6675008,6.1907028 4.5741018,6.3091885 4.5741018,6.3446043 c 0,0.035415 -0.093979,0.1503993 -0.2088422,0.25552 C 4.2503963,6.7052442 4.1386003,6.8534038 4.1168239,6.9293672 4.0950479,7.0053305 4.0297019,7.0966577 3.9716111,7.132317 3.8483073,7.2080069 3.6786518,7.4831535 3.6786518,7.607436 c 0,0.047387 -0.067852,0.1411723 -0.1507828,0.2084174 -0.1917862,0.1555128 -0.3267906,0.3882418 -0.3267906,0.5633415 0,0.088416 -0.073654,0.1981701 -0.2089383,0.3113462 -0.1165942,0.09754 -0.2089383,0.2259126 -0.2089383,0.2904574 0,0.06362 -0.026865,0.1299955 -0.059696,0.1475107 -0.032834,0.01751 -0.059696,0.1302667 -0.059696,0.2505609 0,0.181109 -0.034913,0.2479247 -0.2030431,0.3885778 C 2.2633056,9.9328375 2.2151233,10.040192 2.1463583,10.468176 l -0.033115,0.206103 0.1558163,-0.154576 c 0.1054623,-0.104625 0.15584,-0.214118 0.1558896,-0.338817 5.13e-5,-0.129848 0.044133,-0.2199674 0.1493145,-0.3052541 0.097959,-0.079427 0.1492417,-0.1768114 0.1492417,-0.2833922 0,-0.1065805 0.051283,-0.2039598 0.1492414,-0.2833908 0.086938,-0.070498 0.1492418,-0.1784619 0.1492418,-0.2586247 0,-0.07569 0.053728,-0.179576 0.1193933,-0.2308695 0.065665,-0.051292 0.1193934,-0.1435912 0.1193934,-0.2051067 0,-0.061515 0.067159,-0.1663032 0.1492416,-0.2328615 0.082083,-0.066561 0.1492418,-0.1693621 0.1492418,-0.2284532 0,-0.059091 0.053728,-0.1363987 0.1193932,-0.1717943 0.065666,-0.035392 0.1193934,-0.10694 0.1193934,-0.158986 0,-0.052046 0.053727,-0.1365955 0.1193933,-0.1878888 0.065666,-0.051292 0.1193934,-0.1352238 0.1193934,-0.1865126 0,-0.051293 0.053728,-0.1180711 0.1193933,-0.1484044 0.065666,-0.030333 0.1193934,-0.100174 0.1193934,-0.155202 0,-0.055028 0.067158,-0.1380316 0.1492416,-0.1844532 0.082083,-0.046421 0.1492417,-0.1129215 0.1492417,-0.1477787 0,-0.034857 0.053728,-0.1053436 0.1193933,-0.1566371 0.065665,-0.051293 0.1193933,-0.112853 0.1193933,-0.1368 0,-0.023946 0.053728,-0.095709 0.1193933,-0.1594726 C 5.188239,6.1104659 5.2307655,6.060975 5.2307655,6.0116417 c 0,-0.028099 0.053728,-0.080049 0.1193933,-0.1154453 0.065666,-0.035396 0.1193935,-0.081993 0.1193935,-0.1035456 0,-0.021554 0.1074539,-0.1291956 0.2387865,-0.2392043 0.1313331,-0.1100088 0.2387871,-0.2143224 0.2387871,-0.2318083 0,-0.038676 0.4647571,-0.4439978 0.5091033,-0.4439978 0.017341,0 0.022773,3.0664218 0.012068,6.8142716 -0.015042,5.267308 -0.036477,6.866908 -0.094413,7.046136 -0.1537457,0.47562 -0.4476708,0.698732 -1.1180448,0.84868 -0.4198957,0.09392 -0.502648,0.174678 -0.502648,0.49053 0,0.407717 0.059991,0.418399 1.5433654,0.274826 0.8661746,-0.08385 0.9728097,-0.08386 1.9401415,-4.65e-4 1.3064688,0.112627 1.6853263,0.113782 1.7335644,0.0054 0.056448,-0.12697 0.042622,-0.481756 -0.022893,-0.587414 C 9.914849,19.717028 9.7540113,19.635639 9.5899517,19.588606 9.166549,19.467223 8.9082999,19.191714 8.7749238,18.719108 8.6888731,18.414198 8.6670472,18.029111 8.6467719,16.458039 8.6200339,14.386274 8.603229,14.484355 8.9608265,14.624985 c 0.1659859,0.06528 2.5313905,3.166737 2.9584425,3.879034 0.404121,0.674057 0.373021,0.961596 -0.12,1.10944 -0.217871,0.06535 -0.277081,0.111053 -0.323064,0.249442 -0.03445,0.103699 -0.03518,0.24322 -0.0019,0.359588 0.0482,0.168376 0.07834,0.192246 0.26337,0.20849 0.114916,0.01009 0.763717,-0.02331 1.44178,-0.07423 1.173823,-0.08815 1.28385,-0.08835 2.298321,-0.0041 1.480693,0.122752 1.560616,0.120033 1.639151,-0.0558 0.06734,-0.150765 0.03733,-0.510871 -0.04878,-0.585195 -0.0284,-0.02452 -0.257706,-0.09007 -0.509556,-0.145661 -0.91178,-0.201276 -1.454566,-0.530758 -2.161307,-1.311958 -0.52053,-0.575369 -3.804621,-4.920456 -3.782077,-5.003956 0.03834,-0.142024 2.568001,-2.752732 3.070353,-3.168727 0.590952,-0.4893684 1.052658,-0.7172336 1.72664,-0.8521464 0.227339,-0.045509 0.433385,-0.109933 0.457878,-0.1431695 0.02449,-0.033236 0.04495,-0.190913 0.04544,-0.350393 0.0013,-0.4296369 -0.02061,-0.4370248 -0.98836,-0.3325577 -1.008125,0.1088257 -1.449589,0.1092246 -2.654859,0.00244 -0.712973,-0.063195 -0.977737,-0.070027 -1.038093,-0.02679 -0.108272,0.077559 -0.158775,0.3486548 -0.105053,0.5639176 0.04024,0.1612151 0.07427,0.1832194 0.44292,0.2863169 0.678781,0.189833 0.778166,0.3686391 0.495837,0.8920621 -0.195529,0.362488 -0.338883,0.537607 -1.717952,2.098606 -1.1262364,1.274815 -1.2679839,1.408471 -1.582202,1.491885 l -0.1343176,0.03568 0,-4.9727788 0,-4.9727782 L 8.7677805,3.7166302 8.902098,3.631649 8.7592588,3.66799 C 8.6204355,3.703149 8.6172971,3.6975165 8.6473939,3.4670495 8.677669,3.235214 8.8568325,3.0287333 9.0314505,3.0244353 c 0.038305,-9.421e-4 0.078601,-0.021027 0.089545,-0.044629 0.025964,-0.055997 0.6911418,-0.4208206 0.7672688,-0.4208206 0.032196,0 0.058538,-0.01886 0.058538,-0.041909 0,-0.023049 0.094023,-0.073751 0.2089389,-0.1126684 0.114915,-0.038919 0.208937,-0.08962 0.208937,-0.1126684 0,-0.023049 0.05149,-0.041909 0.114418,-0.041909 0.06293,0 0.123374,-0.018531 0.134319,-0.041182 0.02481,-0.05136 0.950622,-0.4361357 1.511007,-0.6279914 1.454615,-0.4980101 3.510066,-0.94039363 4.284571,-0.92214553 0.276544,0.006516 0.255774,0.0120362 -0.492525,0.1308987 C 13.744719,1.1343798 11.365668,2.0279589 9.4499673,3.2182477 8.9611524,3.5219646 8.7811418,3.67222 9.1022143,3.5085178 c 0.1033583,-0.052699 0.187924,-0.1140024 0.187924,-0.1362315 0,-0.022228 0.031043,-0.040416 0.068985,-0.040416 0.037942,0 0.1570355,-0.057966 0.264652,-0.1288143 0.1076166,-0.070848 0.2243218,-0.1288143 0.2593458,-0.1288143 0.035023,0 0.06368,-0.020483 0.06368,-0.045516 0,-0.025034 0.047011,-0.058796 0.1044692,-0.075025 0.05746,-0.01623 0.211926,-0.084882 0.343257,-0.1525577 0.753813,-0.3884457 1.965279,-0.8557767 2.8848,-1.1128294 0.9511,-0.2658809 1.307405,-0.3440333 2.129719,-0.4671339 2.203789,-0.32990715 4.259118,-0.26345914 6.357695,0.205542 0.756483,0.1690621 0.929167,0.2768834 0.208937,0.1304574 -1.546072,-0.314324 -3.920101,-0.3601448 -5.462244,-0.1054262 l -0.447724,0.073952 0.447724,-0.037261 c 0.811339,-0.067522 2.727571,-0.034854 3.462407,0.059026 0.657454,0.083995 1.840234,0.3026738 2.110246,0.3901534 0.07061,0.022876 0.276128,0.081497 0.456711,0.1302713 0.40643,0.1097717 1.454195,0.4780113 1.718095,0.6038287 0.107707,0.05135 0.235309,0.093363 0.283558,0.093363 0.04826,0 0.08773,0.017718 0.08773,0.039371 0,0.021654 0.100738,0.07773 0.223865,0.1246143 0.123122,0.046884 0.275149,0.1185047 0.337833,0.1591573 0.109204,0.070821 0.107333,0.07501 -0.04478,0.1001061 -0.08731,0.014406 -0.158745,0.010355 -0.158745,-0.009 0,-0.019357 -0.141035,-0.0888 -0.313408,-0.1543162 C 24.504572,2.9595026 24.282947,2.8746461 24.184448,2.8364486 23.608246,2.6130019 21.932583,2.1991385 21.319007,2.1287285 c -0.222479,-0.02553 -0.218403,-0.022234 0.05971,0.04826 0.76389,0.1936349 0.973692,0.2486967 1.223782,0.3211771 0.147749,0.042819 0.294155,0.097209 0.325347,0.1208644 0.03119,0.023655 0.09089,0.043009 0.132685,0.043009 0.07822,0 0.438272,0.1348899 1.205316,0.4515458 l 0.439566,0.1814645 -0.181677,0.065934 C 23.984365,3.5567245 23.002454,4.2414695 22.470442,4.792859 l -0.291059,0.3016611 0.0338,-0.4820009 c 0.01861,-0.2651006 0.04797,-0.6726512 0.06529,-0.9056682 0.03549,-0.477668 -0.01487,-0.6075585 -0.250596,-0.6464541 -0.134238,-0.022148 -0.226285,0.027004 -0.565454,0.3019493 -0.670039,0.5431597 -1.438757,0.9321254 -2.531295,1.280817 -0.328325,0.1047894 -0.63054,0.2280332 -0.671584,0.2738755 C 18.082467,5.1148342 18.236108,5.599 18.47596,5.599 c 0.279994,0 0.763285,0.1765238 0.968696,0.3538196 0.39883,0.3442406 0.381931,-0.01858 0.381931,8.1994424 0,7.858345 0.004,7.743028 -0.284213,8.24374 -0.165891,0.288228 -0.602663,0.527668 -1.164206,0.638225 -0.214705,0.04228 -0.412765,0.107336 -0.440133,0.144586 -0.07042,0.09586 -0.06351,0.544754 0.01021,0.663665 0.07758,0.125124 0.358673,0.129345 1.520165,0.02282 1.050542,-0.09634 2.03324,-0.09663 3.104226,-8.81e-4 1.180753,0.10553 1.443489,0.101739 1.520165,-0.02191 0.164635,-0.265519 0.01081,-0.776271 -0.233784,-0.776271 -0.2647,0 -0.888944,-0.21503 -1.120168,-0.385857 -0.494336,-0.365218 -0.554241,-0.800923 -0.554241,-4.031119 0,-1.368105 0.0125,-2.487465 0.0278,-2.487465 0.01529,0 0.196615,0.07984 0.402953,0.177427 0.669455,0.316611 1.199772,0.414201 2.225755,0.409592 1.018999,-0.0046 1.524928,-0.09479 2.293024,-0.408904 0.904072,-0.369714 1.797089,-1.067805 2.417398,-1.889737 0.509721,-0.675398 0.687796,-1.04064 1.147663,-2.353936 0.0562,-0.16047 0.19736,0.127516 0.199622,0.407234 0.0016,0.193945 0.03973,0.332182 0.1209,0.437969 0.09254,0.120615 0.118692,0.242073 0.118999,0.552817 2.98e-4,0.289787 0.04197,0.505133 0.153056,0.790765 0.15128,0.388974 0.152497,0.405424 0.134316,1.817365 -0.01756,1.363133 -0.02417,1.434234 -0.152662,1.641768 -0.11042,0.178338 -0.134318,0.298566 -0.134318,0.675768 0,0.380814 -0.0203,0.481112 -0.119391,0.589844 -0.08895,0.0976 -0.119396,0.209029 -0.119396,0.436931 0,0.240486 -0.02554,0.32587 -0.119392,0.399185 -0.08707,0.06801 -0.119394,0.158695 -0.119394,0.334916 0,0.176218 -0.03235,0.266909 -0.119393,0.334916 -0.07987,0.06238 -0.119393,0.158698 -0.119393,0.290939 0,0.14188 -0.0337,0.21585 -0.119395,0.262038 -0.08468,0.04563 -0.119391,0.120158 -0.119391,0.256252 0,0.139161 -0.03281,0.207052 -0.119394,0.247047 -0.08343,0.03853 -0.119394,0.107886 -0.119394,0.230208 0,0.1298 -0.03086,0.183509 -0.119393,0.20776 -0.08401,0.02302 -0.119393,0.07796 -0.119393,0.18543 0,0.08822 -0.03782,0.165247 -0.08955,0.182381 -0.04924,0.01631 -0.08955,0.08494 -0.08955,0.152522 0,0.06759 -0.05372,0.151826 -0.119391,0.187223 -0.06566,0.03538 -0.119394,0.115929 -0.119394,0.178962 0,0.06304 -0.05372,0.139425 -0.119393,0.169759 -0.06566,0.03033 -0.119394,0.09989 -0.119394,0.154578 0,0.05468 -0.05372,0.124243 -0.119394,0.154577 -0.06566,0.03033 -0.119393,0.09823 -0.119393,0.150875 0,0.05263 -0.04029,0.109073 -0.08955,0.125386 -0.04925,0.01631 -0.08955,0.0752 -0.08955,0.130854 0,0.05594 -0.05339,0.115822 -0.119392,0.133902 -0.06567,0.01799 -0.119393,0.07752 -0.119393,0.132288 0,0.05477 -0.02753,0.09958 -0.06117,0.09958 -0.03365,0 -0.0867,0.05797 -0.117915,0.128815 -0.03121,0.07086 -0.09771,0.128814 -0.147766,0.128814 -0.05122,0 -0.09101,0.04506 -0.09101,0.103052 0,0.05726 -0.0398,0.103052 -0.08955,0.103052 -0.04974,0 -0.08955,0.0458 -0.08955,0.10305 0,0.05994 -0.03979,0.103053 -0.09514,0.103053 -0.05232,0 -0.109184,0.04639 -0.126357,0.103049 -0.01716,0.05668 -0.06525,0.103053 -0.106841,0.103053 -0.04159,0 -0.08967,0.04638 -0.106842,0.10305 -0.01716,0.05668 -0.07403,0.103052 -0.126356,0.103052 -0.05232,0 -0.09514,0.02199 -0.09514,0.04886 0,0.07097 -0.270411,0.311811 -0.350102,0.311811 -0.03726,0 -0.06778,0.03478 -0.06778,0.07729 0,0.0425 -0.04029,0.07729 -0.08955,0.07729 -0.04925,0 -0.08955,0.02318 -0.08955,0.05152 0,0.05878 0.06746,0.0655 0.204055,0.02026 0.05193,-0.0172 0.09443,-0.05985 0.09443,-0.09477 0,-0.03494 0.06715,-0.08992 0.149241,-0.122197 0.08208,-0.03228 0.149244,-0.08831 0.149244,-0.124505 0,-0.0362 0.0806,-0.09661 0.17909,-0.134239 0.0985,-0.03764 0.17909,-0.101755 0.17909,-0.142497 0,-0.04074 0.06716,-0.100485 0.149242,-0.132765 0.08208,-0.03229 0.149242,-0.08708 0.149242,-0.121784 0,-0.03471 0.06715,-0.101073 0.149241,-0.147494 0.08208,-0.04642 0.149242,-0.11473 0.149242,-0.151797 0,-0.03706 0.06715,-0.09841 0.149241,-0.136333 0.08208,-0.03792 0.149242,-0.102261 0.149242,-0.142987 0,-0.04071 0.06716,-0.119643 0.14924,-0.175373 0.08208,-0.05573 0.149243,-0.132844 0.149243,-0.171365 0,-0.03852 0.08059,-0.119571 0.17909,-0.180109 0.173837,-0.106841 0.179088,-0.10712 0.179088,-0.0095 0,0.05721 -0.05145,0.112164 -0.119392,0.127499 -0.06886,0.01554 -0.119392,0.07029 -0.119392,0.129311 0,0.0563 -0.04029,0.115708 -0.08955,0.132022 -0.04925,0.01631 -0.08955,0.07674 -0.08955,0.134326 0,0.05944 -0.03934,0.104668 -0.09101,0.104668 -0.05005,0 -0.116557,0.05796 -0.147764,0.128814 -0.03121,0.07086 -0.08113,0.128814 -0.110953,0.128814 -0.02982,0 -0.06825,0.04638 -0.08544,0.103053 -0.01716,0.05668 -0.07403,0.10305 -0.126355,0.10305 -0.05232,0 -0.09514,0.03551 -0.09514,0.07892 0,0.04339 -0.03766,0.09138 -0.08365,0.106615 -0.04603,0.01524 -0.09724,0.07249 -0.113804,0.127197 -0.01658,0.05473 -0.07295,0.09949 -0.125276,0.09949 -0.05232,0 -0.09514,0.0323 -0.09514,0.07177 0,0.03947 -0.04029,0.08514 -0.08955,0.101437 -0.04925,0.01631 -0.08955,0.06516 -0.08955,0.108562 0,0.04456 -0.05196,0.07891 -0.119393,0.07891 -0.06567,0 -0.120635,0.02897 -0.122153,0.06441 -0.0015,0.03542 -0.07112,0.11078 -0.15465,0.167459 -0.08354,0.05668 -0.239477,0.178406 -0.346528,0.27051 -0.107049,0.0921 -0.211142,0.167459 -0.231318,0.167459 -0.02017,0 -0.116727,0.06377 -0.214559,0.141696 -0.279336,0.222521 -0.353966,0.270509 -0.420687,0.270509 -0.03422,0 -0.06223,0.03478 -0.06223,0.07729 0,0.04251 -0.04148,0.07728 -0.09214,0.07728 -0.05069,0 -0.164578,0.05796 -0.253101,0.128814 -0.08853,0.07085 -0.194806,0.128813 -0.236183,0.128813 -0.04138,0 -0.07523,0.02319 -0.07523,0.05152 0,0.02836 -0.03385,0.05152 -0.07524,0.05152 -0.04138,0 -0.147657,0.05796 -0.236178,0.128813 -0.08852,0.07085 -0.20242,0.128814 -0.253102,0.128814 -0.05068,0 -0.09214,0.02318 -0.09214,0.05152 0,0.02834 -0.05372,0.05152 -0.119392,0.05152 -0.06565,0 -0.119394,0.02319 -0.119394,0.05152 0,0.02836 -0.05373,0.05152 -0.119392,0.05152 -0.06566,0 -0.119394,0.02318 -0.119394,0.05152 0,0.02835 -0.02621,0.05152 -0.05826,0.05152 -0.03205,0 -0.146211,0.0463 -0.253711,0.10286 -0.121298,0.06383 -0.157437,0.102931 -0.09526,0.103049 0.05512,1.06e-4 0.140502,-0.03458 0.189751,-0.0771 0.04925,-0.0425 0.143271,-0.07728 0.208939,-0.07728 0.06567,0 0.155156,-0.03087 0.198868,-0.06859 0.04372,-0.03773 0.153085,-0.08455 0.243052,-0.104032 0.08997,-0.01948 0.163573,-0.05818 0.163573,-0.08598 0,-0.0278 0.05181,-0.05055 0.115129,-0.05055 0.06333,0 0.150629,-0.02926 0.194015,-0.06501 0.04339,-0.03576 0.146042,-0.09485 0.228128,-0.131335 0.362854,-0.16126 0.511748,-0.238001 0.585827,-0.301938 0.04365,-0.03768 0.117739,-0.06849 0.164644,-0.06849 0.0469,0 0.08528,-0.02368 0.08528,-0.05262 0,-0.02894 0.07352,-0.08113 0.163347,-0.115933 0.08984,-0.03483 0.207535,-0.09808 0.261545,-0.140591 0.05401,-0.04251 0.168278,-0.123662 0.253934,-0.18034 0.08565,-0.05668 0.224548,-0.155221 0.30865,-0.218984 0.153024,-0.116019 0.268581,-0.149928 0.263393,-0.07728 -0.0015,0.02126 -0.07142,0.08501 -0.15532,0.141697 -0.0839,0.05668 -0.2271,0.163235 -0.318204,0.236793 -0.09109,0.07355 -0.209254,0.148187 -0.262556,0.165841 -0.0533,0.01767 -0.09692,0.05601 -0.09692,0.08524 0,0.02923 -0.04029,0.05314 -0.08955,0.05314 -0.04926,0 -0.08955,0.03478 -0.08955,0.07728 0,0.0425 -0.04394,0.0773 -0.09762,0.0773 -0.05368,0 -0.159865,0.05797 -0.235936,0.128816 -0.07606,0.07085 -0.167632,0.128813 -0.203467,0.128813 -0.03585,0 -0.137578,0.05796 -0.226102,0.128813 -0.08852,0.07086 -0.194804,0.128816 -0.23618,0.128816 -0.04138,0 -0.07524,0.02318 -0.07524,0.05152 0,0.02836 -0.04143,0.05152 -0.09203,0.05152 -0.05064,0 -0.151362,0.04847 -0.223865,0.107703 -0.0725,0.05923 -0.232559,0.145859 -0.355683,0.192495 -0.123124,0.04663 -0.223863,0.102509 -0.223863,0.124163 0,0.02165 -0.05373,0.03938 -0.119392,0.03938 -0.06566,0 -0.119395,0.02319 -0.119395,0.05152 0,0.02835 -0.05372,0.05152 -0.119392,0.05152 -0.06565,0 -0.119394,0.02319 -0.119394,0.05152 0,0.02835 -0.03756,0.05152 -0.08348,0.05152 -0.04592,0 -0.231677,0.06727 -0.412804,0.149521 -0.181127,0.08224 -0.411885,0.165173 -0.512799,0.184305 -0.100912,0.01912 -0.198804,0.05618 -0.217535,0.08235 -0.01873,0.02616 -0.09963,0.04756 -0.179774,0.04756 -0.08014,0 -0.145718,0.02319 -0.145718,0.05152 0,0.02835 -0.06715,0.05152 -0.149242,0.05152 -0.08208,0 -0.149242,0.02319 -0.149242,0.05152 0,0.02835 0.06237,0.05152 0.138608,0.05152 0.143849,0 0.654527,-0.127505 0.824113,-0.205761 0.05342,-0.02465 0.19445,-0.06057 0.313408,-0.07984 0.118958,-0.01927 0.216288,-0.05562 0.216288,-0.08081 0,-0.02518 0.0563,-0.04579 0.125106,-0.04579 0.06881,0 0.196411,-0.03156 0.28356,-0.07012 0.822599,-0.364027 1.265351,-0.50266 0.957484,-0.2998 -0.197407,0.130075 -1.515568,0.679074 -1.630474,0.679074 -0.05163,0 -0.09386,0.02318 -0.09386,0.05152 0,0.02835 -0.04065,0.05152 -0.09035,0.05152 -0.04969,0 -0.143717,0.02319 -0.208937,0.05152 -0.06522,0.02835 -0.171139,0.07428 -0.235372,0.102083 -0.06424,0.02781 -0.22541,0.06555 -0.358177,0.08388 -0.132768,0.01831 -0.241395,0.0509 -0.241395,0.07241 0,0.02149 -0.07387,0.05225 -0.164166,0.06835 -0.479411,0.08546 -0.824167,0.162603 -0.850677,0.190358 -0.04041,0.04231 -1.140385,0.206113 -2.029688,0.302271 -0.352117,0.03807 -0.36307,0.04263 -0.118371,0.04928 0.484768,0.01316 2.176509,-0.100646 2.234618,-0.150316 0.03119,-0.02668 0.154524,-0.04847 0.274073,-0.04847 0.119547,0 0.349231,-0.03453 0.510407,-0.07672 0.338321,-0.08857 0.442288,-0.09615 0.442288,-0.03218 0,0.02511 -0.12026,0.06123 -0.267244,0.08026 -0.146985,0.01902 -0.282886,0.05645 -0.302006,0.08313 -0.01912,0.02671 -0.108396,0.04855 -0.198391,0.04855 -0.09,0 -0.189147,0.02114 -0.220339,0.04701 -0.03119,0.02585 -0.231324,0.07357 -0.444741,0.10605 -0.213416,0.03248 -0.602935,0.0941 -0.865601,0.136924 -1.026337,0.167364 -2.41392,0.228732 -3.760889,0.166326 -0.714748,-0.03311 -0.631436,-0.0064 0.32833,0.105558 0.279081,0.03253 0.715952,0.08454 0.970823,0.115562 0.276061,0.03359 0.891468,0.04529 1.522265,0.02895 1.083019,-0.02808 1.004375,-0.0016 -0.356849,0.120444 -0.608853,0.05457 -0.992756,0.05611 -1.940141,0.0078 -1.27454,-0.06497 -2.369263,-0.182812 -2.703357,-0.290998 -0.114916,-0.03721 -0.349972,-0.08419 -0.522347,-0.104379 -0.172374,-0.02019 -0.313406,-0.05569 -0.313406,-0.07888 0,-0.02319 -0.11417,-0.05854 -0.25371,-0.07854 -0.139542,-0.02 -0.326252,-0.06843 -0.414913,-0.10758 -0.08865,-0.03915 -0.216263,-0.07119 -0.28356,-0.07119 -0.0673,0 -0.122358,-0.02319 -0.122358,-0.05152 0,-0.02835 -0.02686,-0.05152 -0.05971,-0.05152 -0.237574,0 0.207983,0.205425 0.955148,0.44037 0.295396,0.09289 0.467751,0.15161 0.671586,0.228811 0.07387,0.02798 0.295499,0.08797 0.492498,0.13328 0.196999,0.04532 0.452201,0.105332 0.567118,0.133353 0.265875,0.06483 0.656331,0.13707 1.07454,0.198804 0.180584,0.02667 0.449217,0.06955 0.596968,0.09535 l 0.268633,0.04689 -0.238786,-2.06e-4 c -0.131333,-1.02e-4 -0.73342,-0.06461 -1.337972,-0.143315 z m 0.09802,-0.803781 c -0.01984,-0.01712 -0.07133,-0.01896 -0.114418,-0.004 -0.04761,0.01644 -0.03348,0.02866 0.03605,0.03114 0.06294,0.0022 0.09819,-0.0099 0.07834,-0.02707 l 0,-2e-6 z m 5.836593,-0.947858 c 0.0467,-0.06521 -0.03235,-0.06521 -0.149242,0 -0.07717,0.04304 -0.07559,0.05006 0.0114,0.05073 0.05551,4.13e-4 0.11755,-0.02239 0.137843,-0.05073 z m 0.835753,-0.165183 c 0.03979,-0.03436 -0.02985,-0.03941 -0.208938,-0.01515 -0.147749,0.01999 -0.2955,0.05955 -0.328333,0.0879 -0.03979,0.03436 0.02985,0.03941 0.208938,0.01515 0.147751,-0.02 0.295501,-0.05955 0.328333,-0.0879 z M 6.7179422,27.585945 c -0.052133,-0.03452 -0.1104538,-0.09754 -0.1296047,-0.140058 -0.024745,-0.05493 -0.036185,-0.04622 -0.039533,0.03005 -0.00562,0.128008 0.041599,0.176624 0.1694024,0.174408 0.086089,-0.0016 0.086067,-0.0072 -2.388e-4,-0.06441 l -2.62e-5,0 z m -0.3827889,-0.34616 c -0.020291,-0.02836 -0.062174,-0.05152 -0.093068,-0.05152 -0.030895,0 -0.056172,0.02318 -0.056172,0.05152 0,0.02835 0.04188,0.05152 0.093068,0.05152 0.051188,0 0.076466,-0.02318 0.056173,-0.05152 z M 5.947125,26.879105 c 0,-0.02835 -0.026863,-0.05152 -0.059696,-0.05152 -0.032834,0 -0.059697,0.02318 -0.059697,0.05152 0,0.02835 0.026865,0.05152 0.059697,0.05152 0.032834,0 0.059696,-0.0232 0.059696,-0.05152 z M 25.557478,26.56995 c 0.02028,-0.02835 0.0085,-0.05152 -0.02632,-0.05152 -0.03477,0 -0.06323,0.02319 -0.06323,0.05152 0,0.02836 0.01185,0.05152 0.02633,0.05152 0.01447,0 0.04292,-0.0232 0.06323,-0.05152 z m 0.328333,-0.185851 c 0,-0.01113 -0.04029,-0.02025 -0.08955,-0.02025 -0.04924,0 -0.08955,0.02245 -0.08955,0.0499 0,0.02746 0.04029,0.03657 0.08955,0.02025 0.04925,-0.01631 0.08955,-0.03876 0.08955,-0.0499 z m 0.358181,-0.232497 c 0,-0.02617 0.06716,-0.074 0.14924,-0.106282 0.15915,-0.0626 0.200013,-0.145204 0.07182,-0.145204 -0.04258,0 -0.14332,0.06857 -0.223863,0.152396 -0.08055,0.08382 -0.178435,0.153377 -0.217539,0.154579 -0.03911,0.0013 -0.08704,0.02443 -0.106514,0.05164 -0.021,0.02932 0.03837,0.02725 0.145718,-0.0051 0.09962,-0.02998 0.181136,-0.0759 0.181136,-0.102094 z m 1.22378,-1.539627 c 0.02029,-0.02834 0.0085,-0.05152 -0.02633,-0.05152 -0.03478,0 -0.06323,0.02319 -0.06323,0.05152 0,0.02836 0.01185,0.05152 0.02633,0.05152 0.01447,0 0.04293,-0.02319 0.06323,-0.05152 z m 0.626816,-0.644071 c 0,-0.0425 -0.02687,-0.07728 -0.05971,-0.07728 -0.03284,0 -0.05971,0.03478 -0.05971,0.07728 0,0.04251 0.02687,0.0773 0.05971,0.0773 0.03284,0 0.05971,-0.03478 0.05971,-0.0773 z m 0.238787,-0.257628 c 0.06086,-0.06329 0.05678,-0.0773 -0.02253,-0.0773 -0.05327,0 -0.09686,0.03478 -0.09686,0.0773 0,0.0425 0.01015,0.07728 0.02253,0.07728 0.01239,0 0.05599,-0.03478 0.09686,-0.07728 z m 0.250963,-0.322035 c 0.102697,-0.10246 0.184075,-0.337273 0.101649,-0.293304 -0.02977,0.01589 -0.05414,0.07606 -0.05414,0.13371 0,0.0615 -0.04936,0.115973 -0.119394,0.131782 -0.06565,0.01482 -0.119394,0.04744 -0.119394,0.07248 0,0.07411 0.09429,0.0521 0.191269,-0.04466 z m 0.465396,-0.567401 c 0,-0.04704 -0.03504,-0.06321 -0.09443,-0.04354 -0.05193,0.0172 -0.105661,0.03128 -0.119392,0.03128 -0.01373,0 -0.02497,0.06156 -0.02497,0.136801 0,0.133535 0.0029,0.134575 0.119394,0.04353 0.06566,-0.05129 0.119393,-0.126926 0.119393,-0.168076 z m 0.189312,-0.252114 c 0.06003,-0.04691 0.109173,-0.130505 0.109173,-0.185784 0,-0.05529 0.06715,-0.169399 0.14924,-0.253595 0.08208,-0.0842 0.149988,-0.215072 0.1509,-0.290831 9.33e-4,-0.08337 0.07172,-0.197076 0.179091,-0.288025 0.115581,-0.0979 0.177429,-0.202126 0.177429,-0.299006 0,-0.0818 0.06716,-0.234028 0.149243,-0.33829 0.08208,-0.104262 0.149248,-0.259542 0.149256,-0.345066 7e-6,-0.08553 0.07952,-0.283022 0.17672,-0.438889 0.125189,-0.200766 0.177399,-0.357075 0.179078,-0.536124 0.0024,-0.249509 8.48e-4,-0.251543 -0.117025,-0.159471 -0.09097,0.07106 -0.119393,0.158696 -0.119393,0.368228 0,0.219166 -0.02424,0.288029 -0.119395,0.339326 -0.09201,0.04962 -0.119392,0.120158 -0.119392,0.307777 0,0.190688 -0.02586,0.25537 -0.119393,0.298572 -0.08805,0.04067 -0.119393,0.107887 -0.119393,0.255971 0,0.155565 -0.0269,0.208187 -0.119395,0.233524 -0.08912,0.02442 -0.119392,0.07796 -0.119392,0.211192 0,0.111121 -0.0338,0.189677 -0.08955,0.208144 -0.05475,0.01814 -0.08955,0.09624 -0.08955,0.201013 0,0.126102 -0.03152,0.179991 -0.119393,0.204062 -0.0832,0.02278 -0.119393,0.07796 -0.119393,0.181998 0,0.09657 -0.04218,0.168775 -0.119394,0.204445 -0.06565,0.03033 -0.119393,0.08911 -0.119393,0.130626 0,0.09824 0.05461,0.09541 0.189312,-0.0098 z M 1.9813158,22.029214 C 1.844541,21.936354 1.8278535,21.888151 1.8261792,21.581103 1.8245137,21.275587 1.8077931,21.226673 1.6769376,21.144469 l -0.1473657,-0.09258 0,0.295021 c 0,0.342848 0.1020525,0.625557 0.2393952,0.663183 0.052907,0.0145 0.1482881,0.124724 0.2119586,0.244957 l 0.1157645,0.218607 0.018943,-0.170196 C 2.1304052,22.170738 2.1008346,22.11036 1.9813154,22.029214 Z M 29.3293,21.459248 c -0.01905,-0.04111 -0.0332,-0.0289 -0.03607,0.03114 -0.0026,0.05431 0.01152,0.08475 0.03137,0.06763 0.01984,-0.01712 0.02196,-0.06155 0.0047,-0.09876 l 2e-6,0 z m 0.275022,-0.454141 c 0.01718,-0.05672 0.0068,-0.09014 -0.02289,-0.07425 -0.02977,0.01589 -0.05414,0.06229 -0.05414,0.103122 0,0.106645 0.04058,0.09143 0.07702,-0.02887 z m 0.221468,-0.466702 c 0,-0.055 -0.02686,-0.10001 -0.05971,-0.10001 -0.03284,0 -0.05971,0.05933 -0.05971,0.131856 0,0.07478 0.02583,0.11807 0.05971,0.100009 0.03284,-0.01751 0.05971,-0.07685 0.05971,-0.131855 z M 1.4062543,19.996346 c -0.1087351,-0.113083 -0.1250527,-0.05993 -0.04219,0.137422 0.065567,0.156162 0.076117,0.162537 0.094397,0.05704 0.011319,-0.06533 -0.012174,-0.152833 -0.052207,-0.194466 z m 28.6541267,-0.08609 c 0.0024,-0.0496 -0.02266,-0.09017 -0.05549,-0.09017 -0.03284,0 -0.0578,0.08695 -0.05549,0.193223 0.0035,0.154999 0.01434,0.172835 0.05549,0.09017 0.02822,-0.05668 0.0532,-0.143628 0.05549,-0.193224 z M 1.0832283,17.557558 c -0.11815315,-0.393557 -0.11812241,-1.288183 5.93e-5,-1.728023 0.1171925,-0.436158 0.1054436,-2.148692 -0.013275,-1.934901 -0.25649859,0.461911 -0.25514213,5.446698 0.00156,5.714044 0.1169229,0.121773 0.1270898,-1.666633 0.01166,-2.05112 z m 28.7416487,1.911689 c 5.03e-4,-0.03709 -0.02595,-0.05312 -0.05879,-0.03561 -0.03284,0.01751 -0.05928,0.08265 -0.05879,0.144737 7.47e-4,0.09178 0.01175,0.09844 0.05879,0.03562 0.03183,-0.04251 0.05827,-0.107639 0.05879,-0.144737 z m 0.533644,-0.415472 c 0.0039,-0.05705 -0.01277,-0.05831 -0.08502,-0.0065 -0.05151,0.03689 -0.08761,0.143562 -0.08502,0.251054 l 0.0046,0.186914 0.08047,-0.180341 c 0.04426,-0.09918 0.08251,-0.212161 0.08501,-0.251055 z m 0.609331,-0.830985 c 0.02344,-0.354238 0.07416,-0.771596 0.1127,-0.927461 0.108441,-0.438611 0.09544,-1.948294 -0.0215,-2.498995 -0.05418,-0.255052 -0.108667,-0.579664 -0.121112,-0.72136 -0.01244,-0.141695 -0.01468,0.0322 -0.0051,0.386442 0.0097,0.35424 0.04918,0.78319 0.08772,0.953225 0.07779,0.34318 0.04326,1.20685 -0.0574,1.435329 -0.03463,0.0786 -0.06295,0.451297 -0.06295,0.828208 0,0.607273 -0.01359,0.700207 -0.119392,0.816301 -0.09448,0.103667 -0.118344,0.204589 -0.114364,0.483562 l 0.0051,0.352553 0.126807,-0.231866 c 0.09721,-0.177758 0.136755,-0.38217 0.169442,-0.875938 l -3e-6,0 z m -0.907471,0.422047 c 0.0024,-0.03709 -0.02266,-0.05311 -0.05549,-0.03562 -0.03284,0.01751 -0.0578,0.09424 -0.05549,0.170501 0.0039,0.123806 0.0097,0.127619 0.05549,0.03561 0.02822,-0.05668 0.0532,-0.133403 0.05549,-0.170499 z m 0.565686,-0.756963 0.042,-0.206101 -0.122655,0.193034 c -0.06745,0.106167 -0.120764,0.280068 -0.11845,0.386441 l 0.0043,0.193408 0.07644,-0.180339 c 0.04204,-0.09919 0.09535,-0.273086 0.11845,-0.386443 l -3e-6,0 z M 30.2965,17.269565 c 0.0042,-0.08489 -0.0053,-0.08943 -0.05284,-0.02577 -0.03183,0.0425 -0.0556,0.146848 -0.05284,0.231866 0.005,0.151476 0.0059,0.151993 0.05284,0.02577 0.02627,-0.07085 0.05005,-0.175187 0.05284,-0.231866 z m 0.19102,-3.431857 c -0.03145,-0.06788 -0.05889,-0.09633 -0.06098,-0.06321 -0.0051,0.0804 0.06451,0.232974 0.09442,0.207137 0.01306,-0.01127 -0.0021,-0.07604 -0.03344,-0.143918 z m 0.298906,-0.541403 c -0.07774,-0.165375 -0.119488,-0.212767 -0.121627,-0.13803 -0.0036,0.119209 0.193088,0.497801 0.222842,0.42935 0.0094,-0.02171 -0.0361,-0.152805 -0.101215,-0.29132 z M 1.4658612,13.224795 c -1.254e-4,-0.04481 -0.036051,-0.02318 -0.085531,0.05152 -0.1121571,0.169343 -0.1134205,0.253044 -0.00189,0.125779 0.048206,-0.055 0.08755,-0.134796 0.087429,-0.177304 z m 0.3618975,-1.523907 c 2.507e-4,-0.267119 0.022195,-0.33081 0.1495383,-0.434068 0.082082,-0.06656 0.1483478,-0.169144 0.1472554,-0.227966 -0.00196,-0.105793 -0.0031,-0.105721 -0.1044691,0.0065 -0.275662,0.305342 -0.3466901,0.42344 -0.4120578,0.685133 -0.038933,0.155865 -0.071548,0.35295 -0.072475,0.437968 l -0.00169,0.154576 0.1467983,-0.154576 c 0.1200691,-0.126429 0.1468547,-0.211583 0.1470973,-0.46763 z"
     id="path5954"
     inkscape:connector-curvature="0" /><path
     style="opacity:1;fill:#003399;fill-opacity:0.27639753"
     d="m 22.69232,21.016708 c -1.029007,-0.275312 -1.836393,-1.144555 -2.03295,-2.188701 -0.0424,-0.225236 -0.06874,-2.215434 -0.06874,-5.193218 l 0,-4.8280321 0.213812,-0.2983078 c 0.941733,-1.3138937 1.646785,-1.7689482 2.735341,-1.7654434 1.957558,0.0063 3.28136,1.5309041 3.805201,4.3823903 0.17453,0.950037 0.178532,3.991065 0.0067,5.084745 -0.445206,2.833518 -1.549732,4.492895 -3.22201,4.840563 -0.4786,0.0995 -0.982968,0.08757 -1.437341,-0.034 z"
     id="path5956"
     inkscape:connector-curvature="0" /></svg>